<svg xmlns="http://www.w3.org/2000/svg" viewBox="0 0 512 512">
  <defs>
    <linearGradient id="bg" x1="72" y1="45" x2="440" y2="470" gradientUnits="userSpaceOnUse">
      <stop stop-color="#171d32"/>
      <stop offset="1" stop-color="#080b16"/>
    </linearGradient>
    <linearGradient id="block" x1="144" y1="125" x2="365" y2="386" gradientUnits="userSpaceOnUse">
      <stop stop-color="#654bd1"/>
      <stop offset="1" stop-color="#34266f"/>
    </linearGradient>
    <filter id="glow" x="-60%" y="-60%" width="220%" height="220%">
      <feGaussianBlur stdDeviation="12" result="blur"/>
      <feMerge>
        <feMergeNode in="blur"/>
        <feMergeNode in="SourceGraphic"/>
      </feMerge>
    </filter>
  </defs>

  <rect width="512" height="512" rx="112" fill="url(#bg)"/>
  <circle cx="256" cy="250" r="190" fill="#8c6dff" opacity=".08"/>
  <path d="M100 374c69 37 243 37 312 0" fill="none" stroke="#c8ff50" stroke-linecap="round" stroke-width="8" opacity=".22"/>
  <path d="M128 157c55-44 201-74 267 10" fill="none" stroke="#c8ff50" stroke-linecap="round" stroke-width="7" opacity=".18"/>
  <circle cx="121" cy="160" r="10" fill="#c8ff50"/>
  <circle cx="397" cy="173" r="8" fill="#c8ff50"/>

  <rect x="126" y="119" width="260" height="270" rx="61" fill="url(#block)" stroke="#ffffff" stroke-opacity=".2" stroke-width="5"/>
  <rect x="148" y="141" width="216" height="226" rx="45" fill="none" stroke="#ffffff" stroke-opacity=".1" stroke-width="4"/>

  <g fill="#c8ff50" filter="url(#glow)">
    <path d="M293 174v119.5c0 35.6-28.3 62.5-66.3 62.5-33.7 0-59.7-20.7-59.7-49.5 0-30.2 28.3-51.5 65.5-51.5 8 0 14.6.8 20.5 2.4V196l40-22z"/>
    <path d="M283 174l68-18v42l-68 18z"/>
  </g>

  <g fill="#c8ff50">
    <rect x="183" y="411" width="22" height="35" rx="11"/>
    <rect x="223" y="395" width="22" height="51" rx="11"/>
    <rect x="263" y="379" width="22" height="67" rx="11"/>
    <rect x="303" y="403" width="22" height="43" rx="11"/>
  </g>
</svg>
